<svg version="2.0" width="1437" height="897" xmlns="http://www.w3.org/2000/svg">
<g transform="translate(296, 516) translate(32, 32) rotate(90) translate(-32, -32)">
<rect x="0" y="0" width="64" height="64" fill="#000000" mask="url(#assets/stamps/rect.bmp)"/>
</g>
<g transform="translate(364, 516) translate(32, 32) rotate(90) translate(-32, -32)">
<rect x="0" y="0" width="64" height="64" fill="#000000" mask="url(#assets/stamps/rect.bmp)"/>
</g>
<g transform="translate(432, 516) translate(32, 32) rotate(90) translate(-32, -32)">
<rect x="0" y="0" width="64" height="64" fill="#000000" mask="url(#assets/stamps/rect.bmp)"/>
</g>
<g transform="translate(500, 500) translate(32, 32) translate(-32, -32)">
<rect x="0" y="0" width="64" height="64" fill="#000000" mask="url(#assets/stamps/porthole.bmp)"/>
</g>
<g transform="translate(568, 500) translate(32, 32) translate(-32, -32)">
<rect x="0" y="0" width="64" height="64" fill="#000000" mask="url(#assets/stamps/porthole.bmp)"/>
</g>
<g transform="translate(500, 432) translate(32, 32) translate(-32, -32)">
<rect x="0" y="0" width="64" height="64" fill="#000000" mask="url(#assets/stamps/porthole.bmp)"/>
</g>
<g transform="translate(568, 432) translate(32, 32) translate(-32, -32)">
<rect x="0" y="0" width="64" height="64" fill="#000000" mask="url(#assets/stamps/porthole.bmp)"/>
</g>
<g transform="translate(568, 364) translate(32, 32) translate(-32, -32)">
<rect x="0" y="0" width="64" height="64" fill="#000000" mask="url(#assets/stamps/ramp.bmp)"/>
</g>
<g transform="translate(624, 364) translate(32, 32) translate(-32, -32)">
<rect x="0" y="0" width="64" height="64" fill="#000000" mask="url(#assets/stamps/rhalframp.bmp)"/>
</g>
<g transform="translate(624, 432) translate(32, 32) translate(-32, -32)">
<rect x="0" y="0" width="64" height="64" fill="#000000" mask="url(#assets/stamps/hdoublepane.bmp)"/>
</g>
<g transform="translate(624, 484) translate(32, 32) translate(-32, -32)">
<rect x="0" y="0" width="64" height="64" fill="#000000" mask="url(#assets/stamps/harch.bmp)"/>
</g>
<g transform="translate(612, 520) translate(32, 32) rotate(180) translate(-32, -32)">
<rect x="0" y="0" width="64" height="64" fill="#000000" mask="url(#assets/stamps/halfpipe.bmp)"/>
</g>
<g transform="translate(636, 520) translate(32, 32) rotate(180) translate(-32, -32)">
<rect x="0" y="0" width="64" height="64" fill="#000000" mask="url(#assets/stamps/halfpipe.bmp)"/>
</g>
<g transform="translate(676, 516) translate(32, 32) rotate(90) translate(-32, -32)">
<rect x="0" y="0" width="64" height="64" fill="#000000" mask="url(#assets/stamps/rect.bmp)"/>
</g>
<g transform="translate(744, 516) translate(32, 32) rotate(90) translate(-32, -32)">
<rect x="0" y="0" width="64" height="64" fill="#000000" mask="url(#assets/stamps/rect.bmp)"/>
</g>
<g transform="translate(864, 516) translate(32, 32) rotate(90) translate(-32, -32)">
<rect x="0" y="0" width="64" height="64" fill="#000000" mask="url(#assets/stamps/rect.bmp)"/>
</g>
<g transform="translate(904, 480) translate(32, 32) rotate(90) translate(-32, -32)">
<rect x="0" y="0" width="64" height="64" fill="#000000" mask="url(#assets/stamps/rect.bmp)"/>
</g>
<g transform="translate(952, 444) translate(32, 32) rotate(90) translate(-32, -32)">
<rect x="0" y="0" width="64" height="64" fill="#000000" mask="url(#assets/stamps/rect.bmp)"/>
</g>
<g transform="translate(988, 404) translate(32, 32) rotate(90) translate(-32, -32)">
<rect x="0" y="0" width="64" height="64" fill="#000000" mask="url(#assets/stamps/rect.bmp)"/>
</g>
<g transform="translate(1036, 364) translate(32, 32) rotate(90) translate(-32, -32)">
<rect x="0" y="0" width="64" height="64" fill="#000000" mask="url(#assets/stamps/rect.bmp)"/>
</g>
<g transform="translate(1072, 516) translate(32, 32) rotate(90) translate(-32, -32)">
<rect x="0" y="0" width="64" height="64" fill="#000000" mask="url(#assets/stamps/rect.bmp)"/>
</g>
<g transform="translate(1140, 516) translate(32, 32) rotate(90) translate(-32, -32)">
<rect x="0" y="0" width="64" height="64" fill="#000000" mask="url(#assets/stamps/rect.bmp)"/>
</g>
<g transform="translate(1208, 516) translate(32, 32) rotate(90) translate(-32, -32)">
<rect x="0" y="0" width="64" height="64" fill="#000000" mask="url(#assets/stamps/rect.bmp)"/>
</g>
<g transform="translate(1208, 464) translate(32, 32) rotate(180) translate(-32, -32)">
<rect x="0" y="0" width="64" height="64" fill="#000000" mask="url(#assets/stamps/pipe.bmp)"/>
</g>
<g transform="translate(1208, 400) translate(32, 32) rotate(180) translate(-32, -32)">
<rect x="0" y="0" width="64" height="64" fill="#000000" mask="url(#assets/stamps/pipe.bmp)"/>
</g>
<g transform="translate(1208, 336) translate(32, 32) rotate(180) translate(-32, -32)">
<rect x="0" y="0" width="64" height="64" fill="#000000" mask="url(#assets/stamps/pipe.bmp)"/>
</g>
<g transform="translate(1188, 312) translate(32, 32) rotate(-90) translate(-32, -32)">
<rect x="0" y="0" width="64" height="64" fill="#000000" mask="url(#assets/stamps/rquartramp.bmp)"/>
</g>
<g transform="translate(1276, 516) translate(32, 32) rotate(90) translate(-32, -32)">
<rect x="0" y="0" width="64" height="64" fill="#000000" mask="url(#assets/stamps/rect.bmp)"/>
</g>
<g transform="translate(1256, 464) translate(32, 32) translate(-32, -32)">
<rect x="0" y="0" width="64" height="64" fill="#000000" mask="url(#assets/stamps/hporthole.bmp)"/>
</g>
<g transform="translate(1308, 464) translate(32, 32) translate(-32, -32)">
<rect x="0" y="0" width="64" height="64" fill="#000000" mask="url(#assets/stamps/arch.bmp)"/>
</g>
<g transform="translate(1360, 464) translate(32, 32) translate(-32, -32)">
<rect x="0" y="0" width="64" height="64" fill="#000000" mask="url(#assets/stamps/hporthole.bmp)"/>
</g>
<g transform="translate(1360, 396) translate(32, 32) translate(-32, -32)">
<rect x="0" y="0" width="64" height="64" fill="#000000" mask="url(#assets/stamps/hwindow.bmp)"/>
</g>
<g transform="translate(1256, 420) translate(32, 32) translate(-32, -32)">
<rect x="0" y="0" width="64" height="64" fill="#000000" mask="url(#assets/stamps/castle.bmp)"/>
</g>
<g transform="translate(1360, 352) translate(32, 32) translate(-32, -32)">
<rect x="0" y="0" width="64" height="64" fill="#000000" mask="url(#assets/stamps/castle.bmp)"/>
</g>
<g transform="translate(1308, 412) translate(32, 32) translate(-32, -32)">
<rect x="0" y="0" width="64" height="64" fill="#000000" mask="url(#assets/stamps/medsquare.bmp)"/>
</g>
<g transform="translate(1308, 384) translate(32, 32) translate(-32, -32)">
<rect x="0" y="0" width="64" height="64" fill="#000000" mask="url(#assets/stamps/castle.bmp)"/>
</g>
<defs>
<mask id="assets/stamps/arch.bmp"><svg version="2.0" width="64" height="64" xmlns="http://www.w3.org/2000/svg">
  <defs>
    <mask id="arch">
      <g>
      <rect x="0" y="0" width="64" height="64" fill="white"/>
      <ellipse cx="32" cy="30" rx="18" ry="18" fill="black"/>
      <rect x="14" y="30" width="36" height="36" fill="black"/>
      </g>
    </mask>
  </defs>
  <g transform="translate(0, 0)" mask="url(#arch)" fill="white" stroke="white">
    <polygon fill="white" stroke="white" points="1 1,63 1,63 63,1 63"/>
  </g>
</svg>
</mask>
<mask id="assets/stamps/castle.bmp"><svg version="2.0" width="64" height="64" xmlns="http://www.w3.org/2000/svg">
  <g transform="translate(0, 0)">
    <polygon fill="white" stroke="white" points="55 25,55 31,47 39,18 39,10 31,10 25,15 25,15 31,20 31,20 25,30 25,30 31,35 31,35 25,45 25,45 31,50 31,50 25"/>
  </g>
</svg>
</mask>
<mask id="assets/stamps/halfpipe.bmp"><svg version="2.0" width="64" height="64" xmlns="http://www.w3.org/2000/svg">
  <g transform="translate(0, 0)">
    <polygon fill="white" stroke="white" points="29.5 17,34.5 17,34.5 47,29.5 47"/>
  </g>
</svg>
</mask>
<mask id="assets/stamps/harch.bmp"><svg version="2.0" width="64" height="64" xmlns="http://www.w3.org/2000/svg">
  <defs>
    <mask id="harch">
      <g>
      <rect x="0" y="0" width="64" height="64" fill="white"/>
      <ellipse cx="32" cy="38" rx="9" ry="9" fill="black"/>
      <rect x="23" y="38" width="18" height="18" fill="black"/>
      </g>
    </mask>
  </defs>
  <g transform="translate(0, 0)" mask="url(#harch)">
    <polygon fill="white" stroke="white" points="16 16,48 16,48 48,16 48"/>
  </g>
</svg>
</mask>
<mask id="assets/stamps/hdoublepane.bmp"><svg version="2.0" width="64" height="64" xmlns="http://www.w3.org/2000/svg">
  <defs>
    <mask id="hdoublepane">
      <g>
      <rect x="0" y="0" width="64" height="64" fill="white"/>
      <rect x="25" y="12" width="14" height="14" fill="black"/>
      <rect x="25" y="38" width="14" height="14" fill="black"/>
      </g>
    </mask>
  </defs>
  <g transform="translate(0, 0)" mask="url(#hdoublepane)">
    <polygon fill="white" stroke="white" points="17 1,47 1,47 63,17 63"/>
  </g>
</svg>
</mask>
<mask id="assets/stamps/hporthole.bmp"><svg version="2.0" width="64" height="64" xmlns="http://www.w3.org/2000/svg">
  <defs>
    <mask id="hporthole">
      <g>
      <rect x="0" y="0" width="64" height="64" fill="white"/>
      <rect x="27" y="27" width="10" height="10" fill="black"/>
      </g>
    </mask>
  </defs>
  <g transform="translate(0, 0)" mask="url(#hporthole)">
    <polygon fill="white" stroke="white" points="17 1,47 1,47 63,17 63"/>
  </g>
</svg>
</mask>
<mask id="assets/stamps/hwindow.bmp"><svg version="2.0" width="64" height="64" xmlns="http://www.w3.org/2000/svg">
  <defs>
    <mask id="hwindow">
      <g>
      <rect x="0" y="0" width="64" height="64" fill="white"/>
      <rect x="28" y="21" width="8" height="22" fill="black"/>
      </g>
    </mask>
  </defs>
  <g transform="translate(0, 0)" mask="url(#hwindow)">
    <polygon fill="white" stroke="white" points="17 1,47 1,47 63,17 63"/>
  </g>
</svg>
</mask>
<mask id="assets/stamps/medsquare.bmp"><svg version="2.0" width="64" height="64" xmlns="http://www.w3.org/2000/svg">
  <g transform="translate(0, 0)">
    <polygon fill="white" stroke="white" points="17 17,47 17,47 47,17 47"/>
  </g>
</svg>
</mask>
<mask id="assets/stamps/pipe.bmp"><svg version="2.0" width="64" height="64" xmlns="http://www.w3.org/2000/svg">
  <g transform="translate(0, 0)">
    <polygon fill="white" stroke="white" points="29.5 1,34.5 1,34.5 63,29.5 63"/>
  </g>
</svg>
</mask>
<mask id="assets/stamps/porthole.bmp"><svg version="2.0" width="64" height="64" xmlns="http://www.w3.org/2000/svg">
  <defs>
    <mask id="porthole">
      <g>
      <rect x="0" y="0" width="64" height="64" fill="white"/>
      <rect x="27" y="21" width="11" height="22" fill="black"/>
      </g>
    </mask>
  </defs>
  <g transform="translate(0, 0)" mask="url(#porthole)">
    <polygon fill="white" stroke="white" points="1 1,63 1,63 63,1 63"/>
  </g>
</svg>
</mask>
<mask id="assets/stamps/ramp.bmp"><svg version="2.0" width="64" height="64" xmlns="http://www.w3.org/2000/svg">
  <g transform="translate(0, 0)">
    <polygon fill="white" stroke="white" points="63 63,63 1,1, 63"/>
  </g>
</svg>
</mask>
<mask id="assets/stamps/rect.bmp"><svg version="2.0" width="64" height="64" xmlns="http://www.w3.org/2000/svg">
  <g transform="translate(0, 0)">
    <polygon fill="white" stroke="white" points="17 1,47 1,47 63,17 63"/>
  </g>
</svg>
</mask>
<mask id="assets/stamps/rhalframp.bmp"><svg version="2.0" width="64" height="64" xmlns="http://www.w3.org/2000/svg">
  <g transform="translate(0, 0)">
    <polygon fill="white" stroke="white" points="17 63,17 1,47 63"/>
  </g>
</svg>
</mask>
<mask id="assets/stamps/rquartramp.bmp"><svg version="2.0" width="64" height="64" xmlns="http://www.w3.org/2000/svg">
  <g transform="translate(0, 0)">
    <polygon fill="white" stroke="white" points="25 47,25 17,39 47"/>
  </g>
</svg>
</mask>
</defs>
</svg>